<svg id="visual" viewBox="0 0 960 540" width="960" height="540" xmlns="http://www.w3.org/2000/svg" xmlns:xlink="http://www.w3.org/1999/xlink" version="1.1"><path d="M0 402L22.8 406.3C45.7 410.7 91.3 419.3 137 439C182.7 458.7 228.3 489.3 274 496.7C319.7 504 365.3 488 411.2 475.8C457 463.7 503 455.3 548.8 460.8C594.7 466.3 640.3 485.7 686 478C731.7 470.3 777.3 435.7 823 424C868.7 412.3 914.3 423.7 937.2 429.3L960 435L960 541L937.2 541C914.3 541 868.7 541 823 541C777.3 541 731.7 541 686 541C640.3 541 594.7 541 548.8 541C503 541 457 541 411.2 541C365.3 541 319.7 541 274 541C228.3 541 182.7 541 137 541C91.3 541 45.7 541 22.8 541L0 541Z" fill="#ffffff"></path></svg>