<svg version="1.2" xmlns="http://www.w3.org/2000/svg" viewBox="0 0 960 148" width="960" height="148">
	<title>hero_waves</title>
	<style>
		.s0 { fill: #ffffff } 
	</style>
	<path class="s0" d="m0 10l22.8 4.3c22.9 4.4 68.5 13 114.2 32.7 45.7 19.7 91.3 50.3 137 57.7 45.7 7.3 91.3-8.7 137.2-20.9 45.8-12.1 91.8-20.5 137.6-15 45.9 5.5 91.5 24.9 137.2 17.2 45.7-7.7 91.3-42.3 137-54 45.7-11.7 91.3-0.3 114.2 5.3l22.8 5.7v106h-22.8c-22.9 0-68.5 0-114.2 0-45.7 0-91.3 0-137 0-45.7 0-91.3 0-137.2 0-45.8 0-91.8 0-137.6 0-45.9 0-91.5 0-137.2 0-45.7 0-91.3 0-137 0-45.7 0-91.3 0-114.2 0h-22.8z"/>
</svg>