<svg id="visual" viewBox="0 0 960 540" width="960" height="540" xmlns="http://www.w3.org/2000/svg" xmlns:xlink="http://www.w3.org/1999/xlink" version="1.1"><path d="M0 351L20 353.3C40 355.7 80 360.3 120 357.5C160 354.7 200 344.3 240 356.5C280 368.7 320 403.3 360 424.8C400 446.3 440 454.7 480 442.5C520 430.3 560 397.7 600 378.8C640 360 680 355 720 366.7C760 378.3 800 406.7 840 404.7C880 402.7 920 370.3 940 354.2L960 338L960 541L940 541C920 541 880 541 840 541C800 541 760 541 720 541C680 541 640 541 600 541C560 541 520 541 480 541C440 541 400 541 360 541C320 541 280 541 240 541C200 541 160 541 120 541C80 541 40 541 20 541L0 541Z" fill="#c19ade"></path><path d="M0 400L20 402C40 404 80 408 120 408.3C160 408.7 200 405.3 240 408.8C280 412.3 320 422.7 360 420.2C400 417.7 440 402.3 480 388.5C520 374.7 560 362.3 600 356.8C640 351.3 680 352.7 720 369C760 385.3 800 416.7 840 419.2C880 421.7 920 395.3 940 382.2L960 369L960 541L940 541C920 541 880 541 840 541C800 541 760 541 720 541C680 541 640 541 600 541C560 541 520 541 480 541C440 541 400 541 360 541C320 541 280 541 240 541C200 541 160 541 120 541C80 541 40 541 20 541L0 541Z" fill="#9267b8"></path><path d="M0 465L20 459.3C40 453.7 80 442.3 120 445.2C160 448 200 465 240 470C280 475 320 468 360 458C400 448 440 435 480 424.8C520 414.7 560 407.3 600 415.7C640 424 680 448 720 463.5C760 479 800 486 840 491.7C880 497.3 920 501.7 940 503.8L960 506L960 541L940 541C920 541 880 541 840 541C800 541 760 541 720 541C680 541 640 541 600 541C560 541 520 541 480 541C440 541 400 541 360 541C320 541 280 541 240 541C200 541 160 541 120 541C80 541 40 541 20 541L0 541Z" fill="#633794"></path><path d="M0 516L20 517.8C40 519.7 80 523.3 120 525C160 526.7 200 526.3 240 525.7C280 525 320 524 360 511.3C400 498.7 440 474.3 480 474C520 473.7 560 497.3 600 507.8C640 518.3 680 515.7 720 507.2C760 498.7 800 484.3 840 473.2C880 462 920 454 940 450L960 446L960 541L940 541C920 541 880 541 840 541C800 541 760 541 720 541C680 541 640 541 600 541C560 541 520 541 480 541C440 541 400 541 360 541C320 541 280 541 240 541C200 541 160 541 120 541C80 541 40 541 20 541L0 541Z" fill="#300370"></path></svg>