<svg id="visual" viewBox="0 0 960 540" width="960" height="540" xmlns="http://www.w3.org/2000/svg" xmlns:xlink="http://www.w3.org/1999/xlink" version="1.1"><path d="M0 478L22.8 469.5C45.7 461 91.3 444 137 429.5C182.7 415 228.3 403 274 403.2C319.7 403.3 365.3 415.7 411.2 427.2C457 438.7 503 449.3 548.8 445.7C594.7 442 640.3 424 686 413.7C731.7 403.3 777.3 400.7 823 401.8C868.7 403 914.3 408 937.2 410.5L960 413L960 541L937.2 541C914.3 541 868.7 541 823 541C777.3 541 731.7 541 686 541C640.3 541 594.7 541 548.8 541C503 541 457 541 411.2 541C365.3 541 319.7 541 274 541C228.3 541 182.7 541 137 541C91.3 541 45.7 541 22.8 541L0 541Z" fill="#dacae6"></path><path d="M0 443L22.8 450C45.7 457 91.3 471 137 475.8C182.7 480.7 228.3 476.3 274 473.7C319.7 471 365.3 470 411.2 471.5C457 473 503 477 548.8 471.7C594.7 466.3 640.3 451.7 686 451.3C731.7 451 777.3 465 823 476.3C868.7 487.7 914.3 496.3 937.2 500.7L960 505L960 541L937.2 541C914.3 541 868.7 541 823 541C777.3 541 731.7 541 686 541C640.3 541 594.7 541 548.8 541C503 541 457 541 411.2 541C365.3 541 319.7 541 274 541C228.3 541 182.7 541 137 541C91.3 541 45.7 541 22.8 541L0 541Z" fill="#8866aa"></path><path d="M0 521L22.8 514.2C45.7 507.3 91.3 493.7 137 491.3C182.7 489 228.3 498 274 495.7C319.7 493.3 365.3 479.7 411.2 475.2C457 470.7 503 475.3 548.8 479.5C594.7 483.7 640.3 487.3 686 494.5C731.7 501.7 777.3 512.3 823 510.7C868.7 509 914.3 495 937.2 488L960 481L960 541L937.2 541C914.3 541 868.7 541 823 541C777.3 541 731.7 541 686 541C640.3 541 594.7 541 548.8 541C503 541 457 541 411.2 541C365.3 541 319.7 541 274 541C228.3 541 182.7 541 137 541C91.3 541 45.7 541 22.8 541L0 541Z" fill="#300370"></path></svg>